<?xml version="1.0" standalone="no"?><!DOCTYPE svg PUBLIC "-//W3C//DTD SVG 1.1//EN" "http://www.w3.org/Graphics/SVG/1.1/DTD/svg11.dtd" ><svg xmlns="http://www.w3.org/2000/svg"><metadata></metadata><defs><font id="DINCond-Bold:1166835789" horiz-adv-x="1462"><font-face font-family="DINCond-Bold" font-weight="500" font-stretch="normal" units-per-em="2048" panose-1="0 0 0 0 0 0 0 0 0 0" ascent="1976" descent="-397" x-height="0" bbox="-41 -389 1454 1475" underline-thickness="157" underline-position="-236" unicode-range="U+002e-007a" /><missing-glyph horiz-adv-x="409" d="M395 410 l-217 0 l0 1048 l217 0 l0 -1048 ZM414 0 l-254 0 l0 252 l254 0 l0 -252 Z" /><glyph glyph-name="period" unicode="." d="M367 0 l-252 0 l0 252 l252 0 l0 -252 Z" /><glyph glyph-name="zero" unicode="0" d="M735 311 q0 -152 -92 -241 q-89 -86 -231 -86 q-145 0 -234 86 q-92 89 -92 241 l0 836 q0 153 92 242 q89 86 234 86 q142 0 231 -86 q92 -89 92 -242 l0 -836 ZM518 303 l0 852 q0 61 -29.5 93 q-29.5 32 -76.5 32 q-47 0 -78 -32.5 q-31 -32.5 -31 -92.5 l0 -852 q0 -60 31 -92.5 q31 -32.5 78 -32.5 q47 0 76.5 32 q29.5 32 29.5 93 Z" /><glyph glyph-name="one" unicode="1" d="M580 0 l-218 0 l0 1204 l-219 -168 l0 246 l219 176 l218 0 l0 -1458 Z" /><glyph glyph-name="two" unicode="2" d="M737 0 l-641 0 l0 184 l365 709 q59 109 59 260 q0 61 -29 94 q-29 33 -75 33 q-47 0 -78 -32.5 q-31 -32.5 -31 -92.5 l0 -94 l-217 0 l0 86 q0 155 90 242 q42 41 105.5 63.5 q63.5 22.5 130.5 22.5 q141 0 225 -78 q96 -89 96 -252 q0 -78 -22 -164.5 q-22 -86.5 -58 -155.5 l-329 -630 l409 0 l0 -195 Z" /><glyph glyph-name="three" unicode="3" d="M739 416 q0 -138 -16.5 -212 q-16.5 -74 -79.5 -136 q-87 -84 -233 -84 q-68 0 -131 22.5 q-63 22.5 -105 63.5 q-90 87 -90 241 l0 86 l217 0 l0 -94 q0 -60 31 -92.5 q31 -32.5 78 -32.5 q47 0 77 37 q35 44 35 215 q0 88 -6 136.5 q-6 48.5 -27 76.5 q-27 37 -81 37 l-72 0 l0 182 l72 0 q43 0 69 29 q15 17 23 49.5 q8 32.5 9 58.5 q1 26 1 76 q0 67 -5.5 107.5 q-5.5 40.5 -23.5 64.5 q-26 33 -71 33 q-43 0 -71 -30.5 q-28 -30.5 -28 -86.5 l0 -102 l-217 0 l0 88 q0 155 90 242 q87 84 226 84 q141 0 223 -82 q94 -94 94 -303 q0 -84 -7 -136 q-7 -52 -30 -96 q-26 -50 -80 -86 q61 -44 84 -88 q28 -49 36.5 -107.5 q8.5 -58.5 8.5 -160.5 Z" /><glyph glyph-name="four" unicode="4" d="M772 227 l-100 0 l0 -227 l-217 0 l0 227 l-406 0 l0 195 l375 1036 l211 0 l-363 -1036 l183 0 l0 260 l217 0 l0 -260 l100 0 l0 -195 Z" /><glyph glyph-name="five" unicode="5" d="M741 492 q0 -174 -16.5 -263.5 q-16.5 -89.5 -81.5 -154.5 q-90 -90 -231 -90 q-147 0 -234 84 q-92 89 -92 243 l0 72 l217 0 l0 -100 q0 -63 30 -95 q30 -32 79 -32 q53 0 80 39 q15 20 22.5 69 q7.5 49 8.5 86.5 q1 37.5 1 120.5 q0 81 -0.5 115.5 q-0.5 34.5 -7 78 q-6.5 43.5 -20.5 64.5 q-26 45 -84 45 q-47 0 -78 -33.5 q-31 -33.5 -31 -91.5 l0 -31 l-207 0 l0 840 l629 0 l0 -194 l-430 0 l0 -392 q35 47 76 70 q52 27 104 27 q127 0 197 -88 q42 -52 55.5 -143.5 q13.5 -91.5 13.5 -245.5 Z" /><glyph glyph-name="six" unicode="6" d="M739 442 q0 -141 -16 -214.5 q-16 -73.5 -53 -127.5 q-81 -116 -260 -116 q-174 0 -254 116 q-42 61 -58 135 q-16 74 -16 207 q0 186 59 344 l256 672 l226 0 l-240 -590 q35 25 90 25 q124 0 193 -90 q41 -53 57 -128.5 q16 -75.5 16 -232.5 ZM522 444 q0 67 -0.5 95 q-0.5 28 -8.5 73 q-8 45 -24 66 q-27 37 -77 37 q-53 0 -80 -37 q-16 -21 -24 -66 q-8 -45 -8.5 -73 q-0.5 -28 -0.5 -95 q0 -66 0.5 -93 q0.5 -27 8.5 -70.5 q8 -43.5 24 -65.5 q27 -37 80 -37 q50 0 77 37 q16 21 24 64.5 q8 43.5 8.5 71 q0.5 27.5 0.5 93.5 Z" /><glyph glyph-name="seven" unicode="7" d="M748 1278 l-383 -1278 l-218 0 l383 1264 l-254 0 l0 -195 l-208 0 l0 389 l680 0 l0 -180 Z" /><glyph glyph-name="eight" unicode="8" d="M739 412 q0 -134 -18 -208 q-18 -74 -78 -134 q-86 -86 -231 -86 q-68 0 -130 22 q-62 22 -104 64 q-60 60 -78 134 q-18 74 -18 208 q0 97 9 155 q9 58 34 103 q22 45 86 92 q-53 38 -80 90 q-23 45 -31 95.5 q-8 50.5 -8 131.5 q0 112 20.5 185.5 q20.5 73.5 73.5 126.5 q84 84 224 84 q141 0 225 -84 q53 -53 73.5 -126.5 q20.5 -73.5 20.5 -185.5 q0 -81 -8 -131.5 q-8 -50.5 -31 -95.5 q-27 -52 -80 -90 q60 -44 86 -92 q25 -45 34 -103 q9 -58 9 -155 ZM522 422 q0 66 -0.5 91.5 q-0.5 25.5 -8.5 64.5 q-8 39 -24 59 q-27 35 -77 35 q-53 0 -80 -35 q-16 -20 -24 -59 q-8 -39 -8.5 -64.5 q-0.5 -25.5 -0.5 -91.5 q0 -56 1 -85 q1 -29 9 -66.5 q8 -37.5 23 -57.5 q27 -35 80 -35 q50 0 77 35 q15 19 23 56.5 q8 37.5 9 67 q1 29.5 1 85.5 ZM512 1069 q0 47 -1 72.5 q-1 25.5 -8.5 59 q-7.5 33.5 -21.5 50.5 q-23 29 -69 29 q-49 0 -72 -29 q-14 -17 -21.5 -50.5 q-7.5 -33.5 -8.5 -59 q-1 -25.5 -1 -72.5 q0 -54 1 -77 q1 -23 9.5 -59.5 q8.5 -36.5 26.5 -53.5 q25 -25 66 -25 q40 0 65 25 q6 6 11.5 13.5 q5.5 7.5 9 17.5 q3.5 10 6 18 q2.5 8 4 22 q1.5 14 2.5 21.5 q1 7.5 1.5 25 q0.5 17.5 0.5 23.5 q0 6 0 25.5 q0 19.5 0 23.5 Z" /><glyph glyph-name="nine" unicode="9" d="M739 1016 q0 -186 -59 -344 l-256 -672 l-225 0 l239 590 q-35 -25 -88 -25 q-125 0 -194 90 q-41 53 -57.5 129 q-16.5 76 -16.5 232 q0 139 17 213 q17 74 55 129 q81 117 258 117 q175 0 256 -117 q42 -60 56.5 -133.5 q14.5 -73.5 14.5 -208.5 ZM522 1014 q0 66 -0.5 93 q-0.5 27 -8.5 70.5 q-8 43.5 -24 65.5 q-27 37 -77 37 q-53 0 -80 -37 q-16 -21 -24 -64.5 q-8 -43.5 -8.5 -71 q-0.5 -27.5 -0.5 -93.5 q0 -67 0.5 -95 q0.5 -28 8.5 -73 q8 -45 24 -66 q27 -37 80 -37 q50 0 77 37 q16 21 24 66 q8 45 8.5 73 q0.5 28 0.5 95 Z" /><glyph glyph-name="A" unicode="a" d="M946 0 l-239 0 l-60 289 l-338 0 l-57 -289 l-242 0 l359 1458 l223 0 l354 -1458 ZM604 496 l-125 610 l-125 -610 l250 0 Z" /><glyph glyph-name="B" unicode="b" d="M866 432 q0 -128 -21.5 -207.5 q-21.5 -79.5 -72.5 -132.5 q-89 -92 -287 -92 l-362 0 l0 1458 l364 0 q195 0 285 -90 q48 -50 69 -123.5 q21 -73.5 21 -183.5 q0 -84 -15 -142 q-15 -58 -61 -104 q-34 -34 -75 -51 q47 -18 77 -53 q48 -52 63 -121.5 q15 -69.5 15 -157.5 ZM637 434 q0 121 -41 174.5 q-41 53.5 -133 53.5 l-111 0 l0 -455 l111 0 q95 0 134.5 50.5 q39.5 50.5 39.5 176.5 ZM633 1055 q0 109 -39.5 152.5 q-39.5 43.5 -132.5 43.5 l-109 0 l0 -395 l109 0 q91 0 131.5 47.5 q40.5 47.5 40.5 151.5 Z" /><glyph glyph-name="C" unicode="c" d="M846 387 q-3 -99 -34.5 -179.5 q-31.5 -80.5 -86.5 -131.5 q-103 -92 -252 -92 q-177 0 -283 122 q-20 23 -36 48.5 q-16 25.5 -27 62.5 q-11 37 -18.5 62 q-7.5 25 -12.5 78 q-5 53 -7.5 77.5 q-2.5 24.5 -3.5 93.5 q-1 69 -1 92.5 q0 23.5 0 106.5 q0 8 0 22 q0 108 1 160.5 q1 52.5 6 133.5 q5 81 15.5 127.5 q10.5 46.5 31.5 96.5 q21 50 52 85 q107 123 283 123 q151 0 254 -95 q111 -105 117 -307 l-230 0 q-4 96 -34 141 q-33 54 -107 54 q-74 0 -108 -56 q-31 -50 -41.5 -160 q-10.5 -110 -10.5 -323 q0 -213 10.5 -323 q10.5 -110 41.5 -160 q34 -56 108 -56 q76 0 109 54 q30 45 34 143 l230 0 Z" /><glyph glyph-name="D" unicode="d" d="M883 847 q0 -33 0 -118 q0 -85 0 -118 q0 -33 -2 -102.5 q-2 -69.5 -6 -101 q-4 -31.5 -11.5 -83 q-7.5 -51.5 -18.5 -81 q-11 -29.5 -28.5 -63.5 q-17.5 -34 -40.5 -59 q-105 -121 -282 -121 l-371 0 l0 1458 l371 0 q177 0 282 -121 q23 -25 40.5 -59 q17.5 -34 28.5 -63.5 q11 -29.5 18.5 -81 q7.5 -51.5 11.5 -83 q4 -31.5 6 -101 q2 -69.5 2 -102.5 ZM653 731 q0 209 -9.5 311 q-9.5 102 -39.5 150 q-39 59 -117 59 l-135 0 l0 -1044 l135 0 q78 0 117 59 q30 48 39.5 151.5 q9.5 103.5 9.5 313.5 Z" /><glyph glyph-name="E" unicode="e" d="M735 0 l-612 0 l0 1458 l612 0 l0 -207 l-383 0 l0 -413 l330 0 l0 -207 l-330 0 l0 -424 l383 0 l0 -207 Z" /><glyph glyph-name="F" unicode="f" d="M735 1251 l-383 0 l0 -413 l330 0 l0 -207 l-330 0 l0 -631 l-229 0 l0 1458 l612 0 l0 -207 Z" /><glyph glyph-name="G" unicode="g" d="M846 389 q0 -193 -102.5 -299 q-102.5 -106 -270.5 -106 q-177 0 -283 122 q-20 23 -36 48.5 q-16 25.5 -27 62.5 q-11 37 -18.5 62.5 q-7.5 25.5 -12.5 78.5 q-5 53 -7.5 78 q-2.5 25 -3.5 94 q-1 69 -1 92.5 q0 23.5 0 106.5 q0 83 0 106.5 q0 23.5 1 92.5 q1 69 3.5 94 q2.5 25 7.5 78 q5 53 12.5 78.5 q7.5 25.5 18.5 62.5 q11 37 27 62.5 q16 25.5 36 48.5 q107 123 283 123 q161 0 260 -99 q107 -110 113 -305 l-230 0 q-5 197 -143 197 q-74 0 -108 -56 q-31 -50 -41.5 -160 q-10.5 -110 -10.5 -323 q0 -213 10.5 -323 q10.5 -110 41.5 -160 q34 -56 108 -56 q70 0 106.5 53.5 q36.5 53.5 36.5 133.5 l0 227 l-143 0 l0 189 l373 0 l0 -404 Z" /><glyph glyph-name="H" unicode="h" d="M866 0 l-229 0 l0 639 l-285 0 l0 -639 l-229 0 l0 1458 l229 0 l0 -614 l285 0 l0 614 l229 0 l0 -1458 Z" /><glyph glyph-name="I" unicode="i" d="M352 0 l-229 0 l0 1458 l229 0 l0 -1458 Z" /><glyph glyph-name="J" unicode="j" d="M686 381 q0 -184 -100 -287 q-104 -110 -293 -110 q-177 0 -287 116 l160 154 q20 -27 54.5 -45.5 q34.5 -18.5 72.5 -18.5 q73 0 118.5 50 q45.5 50 45.5 141 l0 1077 l229 0 l0 -1077 Z" /><glyph glyph-name="K" unicode="k" d="M946 0 l-248 0 l-235 600 l-111 -225 l0 -375 l-229 0 l0 1458 l229 0 l0 -686 l318 686 l231 0 l-293 -604 l338 -854 Z" /><glyph glyph-name="L" unicode="l" d="M735 0 l-612 0 l0 1458 l229 0 l0 -1251 l383 0 l0 -207 Z" /><glyph glyph-name="M" unicode="m" d="M1102 0 l-230 0 l0 909 l-198 -598 l-127 0 l-195 588 l0 -899 l-229 0 l0 1458 l207 0 l282 -766 l281 766 l209 0 l0 -1458 Z" /><glyph glyph-name="N" unicode="n" d="M899 0 l-203 0 l-344 866 l0 -866 l-229 0 l0 1458 l205 0 l342 -866 l0 866 l229 0 l0 -1458 Z" /><glyph glyph-name="O" unicode="o" d="M862 835.5 q0 -23.5 0 -106.5 q0 -83 0 -106.5 q0 -23.5 -1 -92.5 q-1 -69 -3.5 -94 q-2.5 -25 -7.5 -78 q-5 -53 -12.5 -78.5 q-7.5 -25.5 -18.5 -62.5 q-11 -37 -27 -62.5 q-16 -25.5 -36 -48.5 q-106 -122 -283 -122 q-177 0 -283 122 q-20 23 -36 48.5 q-16 25.5 -27 62.5 q-11 37 -18.5 62.5 q-7.5 25.5 -12.5 78.5 q-5 53 -7.5 78 q-2.5 25 -3.5 94 q-1 69 -1 92.5 q0 23.5 0 106.5 q0 83 0 106.5 q0 23.5 1 92.5 q1 69 3.5 94 q2.5 25 7.5 78 q5 53 12.5 78.5 q7.5 25.5 18.5 62.5 q11 37 27 62.5 q16 25.5 36 48.5 q107 123 283 123 q176 0 283 -123 q20 -23 36 -48.5 q16 -25.5 27 -62.5 q11 -37 18.5 -62.5 q7.5 -25.5 12.5 -78.5 q5 -53 7.5 -78 q2.5 -25 3.5 -94 q1 -69 1 -92.5 ZM623.5 402.5 q9.5 107.5 9.5 326.5 q0 219 -9.5 326.5 q-9.5 107.5 -39.5 156.5 q-34 56 -111 56 q-74 0 -108 -56 q-31 -50 -41.5 -160 q-10.5 -110 -10.5 -323 q0 -213 10.5 -323 q10.5 -110 41.5 -160 q34 -56 108 -56 q77 0 111 56 q30 49 39.5 156.5 Z" /><glyph glyph-name="P" unicode="p" d="M864 1016 q0 -228 -86.5 -337.5 q-86.5 -109.5 -288.5 -109.5 l-137 0 l0 -569 l-229 0 l0 1458 l366 0 q197 0 286 -106 q89 -106 89 -336 ZM630 921.5 q5 38.5 5 92.5 q0 54 -5 92.5 q-5 38.5 -19 73.5 q-14 35 -43.5 53 q-29.5 18 -73.5 18 l-142 0 l0 -475 l142 0 q44 0 73.5 18 q29.5 18 43.5 53.5 q14 35.5 19 74 Z" /><glyph glyph-name="Q" unicode="q" d="M924 80 l-107 -127 l-119 100 q-88 -69 -225 -69 q-177 0 -283 122 q-20 23 -36 48.5 q-16 25.5 -27 62.5 q-11 37 -18.5 62.5 q-7.5 25.5 -12.5 78.5 q-5 53 -7.5 78 q-2.5 25 -3.5 94 q-1 69 -1 92.5 q0 23.5 0 106.5 q0 83 0 106.5 q0 23.5 1 92.5 q1 69 3.5 94 q2.5 25 7.5 78 q5 53 12.5 78.5 q7.5 25.5 18.5 62.5 q11 37 27 62.5 q16 25.5 36 48.5 q107 123 283 123 q176 0 283 -123 q20 -23 36 -48.5 q16 -25.5 27 -62.5 q11 -37 18.5 -62.5 q7.5 -25.5 12.5 -78.5 q5 -53 7.5 -78 q2.5 -25 3.5 -94 q1 -69 1 -92.5 q0 -23.5 0 -106.5 q0 -153 -2 -227.5 q-2 -74.5 -15.5 -167 q-13.5 -92.5 -41.5 -152.5 l121 -102 ZM633 729 q0 225 -9 329.5 q-9 104.5 -40 153.5 q-34 56 -111 56 q-74 0 -108 -56 q-32 -49 -42 -156.5 q-10 -107.5 -10 -326.5 q0 -219 10 -326.5 q10 -107.5 42 -156.5 q34 -56 108 -56 q30 0 49 11 l-76 63 l107 127 l59 -49 q21 93 21 387 Z" /><glyph glyph-name="R" unicode="r" d="M911 0 l-239 0 l-191 598 l-129 0 l0 -598 l-229 0 l0 1458 l369 0 q198 0 285 -101.5 q87 -101.5 87 -328.5 q0 -144 -37.5 -237 q-37.5 -93 -132.5 -144 l217 -647 ZM630 941 q5 36 5 87 q0 51 -5 87 q-5 36 -19 69 q-14 33 -43.5 50 q-29.5 17 -73.5 17 l-142 0 l0 -446 l142 0 q44 0 73.5 17 q29.5 17 43.5 50 q14 33 19 69 Z" /><glyph glyph-name="S" unicode="s" d="M827 403 q0 -119 -20.5 -194 q-20.5 -75 -73.5 -127 q-99 -96 -284 -96 q-187 0 -283 96 q-52 52 -73 124 q-21 72 -21 189 l229 0 q0 -62 8.5 -99.5 q8.5 -37.5 32.5 -64.5 q33 -38 107 -38 q76 0 110 40 q39 44 39 162 q0 116 -26 161 q-26 45 -111 79 l-174 72 q-77 32 -119 73 q-42 41 -63 111 q-21 70 -21 182 q0 202 119 309 q101 88 250 88 q171 0 262 -88 q102 -99 102 -317 l-229 0 q0 112 -35 156 q-32 43 -102 43 q-61 0 -99 -41 q-39 -45 -39 -144 q0 -90 22.5 -128 q22.5 -38 98.5 -68 l172 -70 q130 -54 175.5 -139.5 q45.5 -85.5 45.5 -270.5 Z" /><glyph glyph-name="T" unicode="t" d="M762 1251 l-246 0 l0 -1251 l-229 0 l0 1251 l-244 0 l0 207 l719 0 l0 -207 Z" /><glyph glyph-name="U" unicode="u" d="M854 358 q0 -163 -100 -268 q-103 -106 -271 -106 q-169 0 -272 106 q-100 105 -100 268 l0 1100 l229 0 l0 -1112 q0 -75 40.5 -115.5 q40.5 -40.5 102.5 -40.5 q62 0 102 40.5 q40 40.5 40 115.5 l0 1112 l229 0 l0 -1100 Z" /><glyph glyph-name="V" unicode="v" d="M887 1458 l-322 -1458 l-237 0 l-320 1458 l252 0 l186 -1106 l189 1106 l252 0 Z" /><glyph glyph-name="W" unicode="w" d="M1454 1458 l-274 -1458 l-240 0 l-209 1108 l-207 -1108 l-239 0 l-277 1458 l252 0 l143 -1106 l201 1106 l254 0 l203 -1106 l141 1106 l252 0 Z" /><glyph glyph-name="X" unicode="x" d="M862 0 l-252 0 l-168 524 l-168 -524 l-251 0 l288 756 l-266 702 l252 0 l145 -487 l146 487 l252 0 l-273 -702 l295 -756 Z" /><glyph glyph-name="Y" unicode="y" d="M795 1458 l-283 -887 l0 -571 l-229 0 l0 571 l-283 887 l254 0 l143 -577 l146 577 l252 0 Z" /><glyph glyph-name="Z" unicode="z" d="M698 0 l-635 0 l0 172 l398 1079 l-373 0 l0 207 l610 0 l0 -172 l-395 -1079 l395 0 l0 -207 Z" /><glyph glyph-name="a" unicode="a" d="M717 0 l-205 0 l0 92 q-35 -52 -66 -72 q-52 -36 -122 -36 q-67 0 -114 21 q-47 21 -89 69 q-66 78 -66 241 q0 155 101 242 q83 74 247 74 l97 0 l0 149 q0 60 -27 92.5 q-27 32.5 -78 32.5 q-43 0 -71 -31 q-33 -36 -33 -100 l-217 0 q0 142 92 234 q39 39 100.5 63.5 q61.5 24.5 126.5 24.5 q153 0 230 -80 q94 -94 94 -254 l0 -762 ZM500 317 l0 160 l-72 0 q-78 0 -113 -33 q-20 -18 -31.5 -52 q-11.5 -34 -11.5 -68 q0 -72 29 -111 q29 -39 84 -39 q50 0 82.5 39 q32.5 39 32.5 104 Z" /><glyph glyph-name="b" unicode="b" d="M762 541 q0 -205 -13.5 -309 q-13.5 -104 -62.5 -164 q-67 -84 -190 -84 q-57 0 -109 30 q-17 9 -40 31 q-23 22 -32 37 l0 -82 l-209 0 l0 1458 l218 0 l0 -448 q26 38 63 57 q50 29 109 29 q120 0 190 -84 q49 -60 62.5 -163.5 q13.5 -103.5 13.5 -307.5 ZM539.5 327.5 q5.5 72.5 5.5 213.5 q0 141 -5.5 212 q-5.5 71 -25.5 105 q-28 45 -82 45 q-45 0 -74 -29 q-34 -34 -34 -102 l0 -465 q0 -68 34 -102 q27 -27 74 -27 q55 0 82 43 q20 34 25.5 106.5 Z" /><glyph glyph-name="c" unicode="c" d="M729 317 q-10 -170 -94 -254 q-79 -79 -229 -79 q-174 0 -256 114 q-46 63 -61 170.5 q-15 107.5 -15 272.5 q0 164 15 271 q15 107 61 171 q81 113 256 113 q146 0 227 -76 q85 -82 96 -256 l-215 0 q-4 69 -29 100 q-25 39 -79 39 q-56 0 -84 -45 q-20 -34 -25.5 -105 q-5.5 -71 -5.5 -212 q0 -141 5.5 -213 q5.5 -72 25.5 -107 q27 -43 84 -43 q53 0 79 37 q25 32 29 102 l215 0 Z" /><glyph glyph-name="d" unicode="d" d="M729 0 l-209 0 l0 82 q-9 -16 -31.5 -37.5 q-22.5 -21.5 -39.5 -30.5 q-52 -30 -109 -30 q-123 0 -190 84 q-49 60 -62.5 164 q-13.5 104 -13.5 309 q0 204 13.5 307.5 q13.5 103.5 62.5 163.5 q70 84 190 84 q59 0 109 -29 q37 -19 63 -57 l0 448 l217 0 l0 -1458 ZM512 307 l0 465 q0 67 -35 102 q-29 29 -74 29 q-53 0 -81 -45 q-20 -34 -25.5 -105 q-5.5 -71 -5.5 -212 q0 -141 5.5 -213.5 q5.5 -72.5 25.5 -106.5 q27 -43 81 -43 q47 0 74 27 q35 35 35 102 Z" /><glyph glyph-name="f" unicode="f" d="M516 913 l-149 0 l0 -913 l-217 0 l0 913 l-111 0 l0 166 l111 0 l0 64 q0 176 108 260 q88 67 258 67 l0 -194 q-149 0 -149 -146 l0 -51 l149 0 l0 -166 Z" /><glyph glyph-name="g" unicode="g" d="M729 -20 q0 -189 -92 -281 q-41 -41 -104 -64.5 q-63 -23.5 -130 -23.5 q-146 0 -233 84 q-90 90 -90 237 l215 0 q0 -66 31 -102 q30 -33 77 -33 q47 0 78 35 q31 36 31 133 l0 185 q-30 -41 -61 -60 q-39 -24 -105 -24 q-67 0 -108 18 q-41 18 -78 61 q-49 58 -67.5 156.5 q-18.5 98.5 -18.5 278.5 q0 180 18.5 279 q18.5 99 67.5 157 q38 44 78.5 62 q40.5 18 107.5 18 q58 0 111 -29 q37 -19 63 -57 l0 69 l209 0 l0 -1099 ZM512 383 l0 389 q0 62 -33 100 q-28 31 -76 31 q-46 0 -79 -45 q-16 -20 -23.5 -66.5 q-7.5 -46.5 -8.5 -87.5 q-1 -41 -1 -126 q0 -86 1 -127 q1 -41 8.5 -87.5 q7.5 -46.5 23.5 -66.5 q32 -43 79 -43 q50 0 78 31 q31 36 31 98 Z" /><glyph glyph-name="h" unicode="h" d="M754 0 l-217 0 l0 776 q0 60 -30 92.5 q-30 32.5 -77 32.5 q-47 0 -76.5 -32 q-29.5 -32 -29.5 -93 l0 -776 l-218 0 l0 1458 l218 0 l0 -448 q26 38 63 57 q50 29 109 29 q124 0 196 -84 q33 -38 47.5 -90 q14.5 -52 14.5 -144 l0 -778 Z" /><glyph glyph-name="i" unicode="i" d="M324 0 l-218 0 l0 1051 l218 0 l0 -1051 ZM334 1217 l-240 0 l0 239 l240 0 l0 -239 Z" /><glyph glyph-name="j" unicode="j" d="M324 -51 q0 -177 -111 -260 q-89 -68 -254 -68 l0 195 q76 0 111.5 33 q35.5 33 35.5 112 l0 1090 l218 0 l0 -1102 ZM334 1217 l-240 0 l0 239 l240 0 l0 -239 Z" /><glyph glyph-name="k" unicode="k" d="M838 0 l-240 0 l-182 455 l-92 -146 l0 -309 l-218 0 l0 1458 l218 0 l0 -840 l272 461 l227 0 l-268 -428 l283 -651 Z" /><glyph glyph-name="l" unicode="l" d="M465 0 q-84 0 -145 14 q-61 14 -111 52 q-109 82 -109 262 l0 1130 l217 0 l0 -1118 q0 -145 148 -145 l0 -195 Z" /><glyph glyph-name="m" unicode="m" d="M1186 0 l-217 0 l0 776 q0 60 -31 92.5 q-31 32.5 -78 32.5 q-47 0 -76.5 -32 q-29.5 -32 -29.5 -93 l0 -776 l-217 0 l0 776 q0 60 -30 92.5 q-30 32.5 -77 32.5 q-47 0 -76.5 -32 q-29.5 -32 -29.5 -93 l0 -776 l-218 0 l0 1079 l209 0 l0 -80 q35 49 72 68 q50 29 109 29 q64 0 119.5 -29.5 q55.5 -29.5 91.5 -81.5 q47 54 96 82 q53 29 115 29 q73 0 119.5 -20 q46.5 -20 84.5 -64 q34 -38 49 -90.5 q15 -52.5 15 -143.5 l0 -778 Z" /><glyph glyph-name="n" unicode="n" d="M754 0 l-217 0 l0 776 q0 60 -30 92.5 q-30 32.5 -77 32.5 q-47 0 -76.5 -32 q-29.5 -32 -29.5 -93 l0 -776 l-218 0 l0 1079 l209 0 l0 -80 q35 49 72 68 q50 29 109 29 q124 0 196 -84 q33 -38 47.5 -90 q14.5 -52 14.5 -144 l0 -778 Z" /><glyph glyph-name="o" unicode="o" d="M722.5 812.5 q14.5 -106.5 14.5 -271.5 q0 -165 -14.5 -272 q-14.5 -107 -60.5 -171 q-82 -114 -256 -114 q-174 0 -256 114 q-46 64 -61 171.5 q-15 107.5 -15 271.5 q0 164 15 271 q15 107 61 171 q81 113 256 113 q175 0 256 -113 q46 -64 60.5 -170.5 ZM514.5 327.5 q5.5 72.5 5.5 213.5 q0 141 -5.5 212 q-5.5 71 -25.5 105 q-28 45 -83 45 q-56 0 -84 -45 q-20 -34 -25.5 -105 q-5.5 -71 -5.5 -212 q0 -141 5.5 -213.5 q5.5 -72.5 25.5 -106.5 q27 -43 84 -43 q56 0 83 43 q20 34 25.5 106.5 Z" /><glyph glyph-name="p" unicode="p" d="M762 541 q0 -205 -13.5 -309 q-13.5 -104 -62.5 -164 q-70 -84 -190 -84 q-61 0 -109 28 q-36 19 -63 58 l0 -449 l-218 0 l0 1458 l209 0 l0 -80 q9 15 32 37 q23 22 40 31 q50 29 109 29 q123 0 190 -84 q49 -60 62.5 -163.5 q13.5 -103.5 13.5 -307.5 ZM539.5 327.5 q5.5 72.5 5.5 213.5 q0 141 -5.5 212 q-5.5 71 -25.5 105 q-28 45 -82 45 q-45 0 -74 -29 q-34 -34 -34 -102 l0 -465 q0 -68 34 -102 q27 -27 74 -27 q55 0 82 43 q20 34 25.5 106.5 Z" /><glyph glyph-name="q" unicode="q" d="M729 -379 l-217 0 l0 449 q-27 -39 -63 -58 q-48 -28 -109 -28 q-120 0 -190 84 q-49 60 -62.5 164 q-13.5 104 -13.5 309 q0 204 13.5 307.5 q13.5 103.5 62.5 163.5 q67 84 190 84 q59 0 109 -29 q17 -9 39.5 -30.5 q22.5 -21.5 31.5 -37.5 l0 80 l209 0 l0 -1458 ZM512 307 l0 465 q0 67 -35 102 q-29 29 -74 29 q-53 0 -81 -45 q-20 -34 -25.5 -105 q-5.5 -71 -5.5 -212 q0 -141 5.5 -213.5 q5.5 -72.5 25.5 -106.5 q27 -43 81 -43 q47 0 74 27 q35 35 35 102 Z" /><glyph glyph-name="r" unicode="r" d="M578 885 l-74 0 q-78 0 -129 -50.5 q-51 -50.5 -51 -136.5 l0 -698 l-218 0 l0 1079 l209 0 l0 -114 q33 48 95 86 q73 45 168 45 l0 -211 Z" /><glyph glyph-name="s" unicode="s" d="M721 311 q0 -143 -96 -239 q-88 -88 -236 -88 q-70 0 -133 23 q-63 23 -104 65 q-97 102 -97 243 l215 0 q0 -65 37 -102 q29 -33 82 -33 q50 0 84 31 q31 28 31 86 q0 44 -23 80 q-23 36 -84 61 l-143 64 q-110 49 -158 125 q-35 55 -35 147 q0 134 95 232 q90 90 233 90 q142 0 227 -82 q93 -90 93 -240 l-213 0 q0 62 -31 98 q-29 33 -76 33 q-49 0 -80 -31 q-30 -30 -30 -81 q0 -40 16 -64 q22 -36 80 -61 l143 -62 q110 -49 158 -119 q45 -64 45 -176 Z" /><glyph glyph-name="t" unicode="t" d="M520 0 q-88 0 -149.5 13.5 q-61.5 13.5 -112.5 52.5 q-108 84 -108 262 l0 585 l-111 0 l0 166 l111 0 l0 277 l217 0 l0 -277 l149 0 l0 -166 l-149 0 l0 -573 q0 -145 153 -145 l0 -195 Z" /><glyph glyph-name="u" unicode="u" d="M748 0 l-207 0 l0 82 q-34 -47 -74 -68 q-52 -30 -109 -30 q-124 0 -196 84 q-33 38 -47.5 90 q-14.5 52 -14.5 143 l0 778 l217 0 l0 -776 q0 -60 30 -92.5 q30 -32.5 77 -32.5 q47 0 76.5 32 q29.5 32 29.5 93 l0 776 l218 0 l0 -1079 Z" /><glyph glyph-name="v" unicode="v" d="M772 1079 l-266 -1079 l-230 0 l-268 1079 l240 0 l143 -735 l141 735 l240 0 Z" /><glyph glyph-name="w" unicode="w" d="M1174 1079 l-242 -1079 l-215 0 l-129 700 l-127 -700 l-215 0 l-238 1079 l242 0 l112 -735 l134 735 l186 0 l135 -735 l113 735 l244 0 Z" /><glyph glyph-name="x" unicode="x" d="M782 0 l-241 0 l-142 336 l-141 -336 l-240 0 l254 549 l-241 530 l239 0 l129 -327 l129 327 l242 0 l-246 -530 l258 -549 Z" /><glyph glyph-name="y" unicode="y" d="M772 1079 l-303 -1216 q-15 -63 -44 -108 q-29 -45 -63 -71 q-34 -26 -85 -40.5 q-51 -14.5 -98 -18.5 q-47 -4 -113 -4 l0 193 q42 1 67 4.5 q25 3.5 53 14 q28 10.5 45 33.5 q17 23 27 60 l18 76 l-268 1077 l240 0 l143 -735 l141 735 l240 0 Z" /><glyph glyph-name="z" unicode="z" d="M612 0 l-559 0 l0 164 l316 723 l-291 0 l0 192 l534 0 l0 -161 l-315 -723 l315 0 l0 -195 Z" /></font>
</defs>
</svg>
